<svg id="logo-openmed" xmlns="http://www.w3.org/2000/svg" width="259.768" height="59.546" viewBox="0 0 259.768 59.546">
  <g id="Raggruppa_14" data-name="Raggruppa 14">
    <path id="Tracciato_10" data-name="Tracciato 10" d="M57.936,111.589V127.4a5.929,5.929,0,0,1-5.928,5.928H36.2a5.929,5.929,0,0,1-5.928-5.928V111.589a5.929,5.929,0,0,1,5.928-5.928H52.008a6.165,6.165,0,0,1,.66.036V100.39H30.928A5.929,5.929,0,0,0,25,106.318v26.348a5.929,5.929,0,0,0,5.928,5.928H57.276a5.929,5.929,0,0,0,5.928-5.928V111.589Z" transform="translate(-25 -81.946)" fill="#39b54a"/>
    <g id="Raggruppa_11" data-name="Raggruppa 11" transform="translate(32.936 11.856)">
      <rect id="Rettangolo_17" data-name="Rettangolo 17" width="5.928" height="5.928" transform="translate(0 5.931)" fill="#006837"/>
      <rect id="Rettangolo_18" data-name="Rettangolo 18" width="5.928" height="5.928" transform="translate(11.856)" fill="#006837"/>
    </g>
    <g id="Raggruppa_12" data-name="Raggruppa 12" transform="translate(26.348 11.856)">
      <rect id="Rettangolo_19" data-name="Rettangolo 19" width="5.928" height="5.928" transform="translate(12.516 5.931)" fill="#8cc63f"/>
      <rect id="Rettangolo_20" data-name="Rettangolo 20" width="3.294" height="3.294" fill="#8cc63f"/>
    </g>
    <g id="Raggruppa_13" data-name="Raggruppa 13" transform="translate(32.936)">
      <rect id="Rettangolo_21" data-name="Rettangolo 21" width="3.294" height="3.294" transform="translate(20.42 14.492)" fill="#39b54a"/>
      <rect id="Rettangolo_22" data-name="Rettangolo 22" width="5.928" height="5.928" transform="translate(11.856)" fill="#39b54a"/>
      <rect id="Rettangolo_23" data-name="Rettangolo 23" width="5.928" height="5.928" transform="translate(0 11.856)" fill="#39b54a"/>
      <rect id="Rettangolo_24" data-name="Rettangolo 24" width="5.928" height="5.928" transform="translate(5.928 5.928)" fill="#39b54a"/>
    </g>
  </g>
  <g id="Raggruppa_17" data-name="Raggruppa 17" transform="translate(60.311 15.318)">
    <g id="Raggruppa_15" data-name="Raggruppa 15" transform="translate(0 9.632)">
      <path id="Tracciato_11" data-name="Tracciato 11" d="M257.17,137.96a11.954,11.954,0,0,1,.961-4.8,12.339,12.339,0,0,1,6.562-6.536,12.417,12.417,0,0,1,9.58,0,12.769,12.769,0,0,1,3.925,2.637,12.215,12.215,0,0,1,2.663,3.9,12.417,12.417,0,0,1,0,9.58,12.522,12.522,0,0,1-6.588,6.616,12.26,12.26,0,0,1-13.505-2.663,12.684,12.684,0,0,1-2.637-3.954A12.073,12.073,0,0,1,257.17,137.96Zm4.832,0a7.466,7.466,0,1,0,14.932,0,7.254,7.254,0,0,0-.577-2.883,7.468,7.468,0,0,0-1.592-2.361,7.532,7.532,0,0,0-10.593,0,7.468,7.468,0,0,0-1.592,2.361A7.235,7.235,0,0,0,262,137.96Z" transform="translate(-257.17 -125.603)" fill="#0070c0"/>
      <path id="Tracciato_12" data-name="Tracciato 12" d="M370.927,125.66a12,12,0,0,1,4.8.961,12.769,12.769,0,0,1,3.925,2.637,12.214,12.214,0,0,1,2.663,3.9,12.416,12.416,0,0,1,0,9.58,12.522,12.522,0,0,1-6.588,6.616,11.963,11.963,0,0,1-4.8.961h-7.411V160.2H358.63V137.963a11.954,11.954,0,0,1,.961-4.8,12.339,12.339,0,0,1,6.562-6.536A12.009,12.009,0,0,1,370.927,125.66Zm2.912,19.189a7.325,7.325,0,0,0,3.98-3.98,7.435,7.435,0,0,0,.577-2.909,7.253,7.253,0,0,0-.577-2.883,7.469,7.469,0,0,0-1.592-2.361,7.481,7.481,0,0,0-5.3-2.169,7.235,7.235,0,0,0-2.883.577,7.459,7.459,0,0,0-3.954,3.954,7.245,7.245,0,0,0-.577,2.883v7.468h7.411A7.5,7.5,0,0,0,373.839,144.849Z" transform="translate(-332.274 -125.603)" fill="#0070c0"/>
      <path id="Tracciato_13" data-name="Tracciato 13" d="M479.142,141.527l3.46,3.46-1.7,1.7a12.306,12.306,0,0,1-17.462,0,11.713,11.713,0,0,1-2.691-4.091,12.771,12.771,0,0,1-.878-4.639,12.605,12.605,0,0,1,.878-4.611,11.734,11.734,0,0,1,2.691-4.063,12.009,12.009,0,0,1,4.091-2.717,12.324,12.324,0,0,1,9.279,0,12.046,12.046,0,0,1,4.091,2.717l1.7,1.7-13.672,13.672a7.317,7.317,0,0,0,8.513-1.429Zm-12.245-8.84a7.347,7.347,0,0,0-1.426,8.51q.658-.658,2-2.005l2.855-2.855q1.508-1.508,2.909-2.883t2.169-2.14a7.373,7.373,0,0,0-4.421-.714A7.107,7.107,0,0,0,466.9,132.687Z" transform="translate(-407.215 -125.603)" fill="#0070c0"/>
      <path id="Tracciato_14" data-name="Tracciato 14" d="M554.671,132.937a12.339,12.339,0,0,1,6.562-6.536,12.417,12.417,0,0,1,9.58,0,12.772,12.772,0,0,1,3.925,2.637,12.214,12.214,0,0,1,2.663,3.9,12.006,12.006,0,0,1,.961,4.8v12.355h-4.886V137.74a7.254,7.254,0,0,0-.577-2.883,7.47,7.47,0,0,0-1.592-2.361,7.48,7.48,0,0,0-5.3-2.169,7.235,7.235,0,0,0-2.883.577,7.458,7.458,0,0,0-3.954,3.954,7.244,7.244,0,0,0-.577,2.883v12.355H553.71V137.74A12.007,12.007,0,0,1,554.671,132.937Z" transform="translate(-476.678 -125.44)" fill="#0070c0"/>
    </g>
    <g id="Raggruppa_16" data-name="Raggruppa 16" transform="translate(104.141)">
      <path id="Tracciato_15" data-name="Tracciato 15" d="M690.136,126.4a11.954,11.954,0,0,1,4.8.961A12.771,12.771,0,0,1,698.864,130a12.216,12.216,0,0,1,2.663,3.9,12.007,12.007,0,0,1,.961,4.8v12.355H697.6V138.7a7.254,7.254,0,0,0-.577-2.883,7.45,7.45,0,0,0-6.889-4.53,7.235,7.235,0,0,0-2.883.577,7.458,7.458,0,0,0-3.954,3.954,7.235,7.235,0,0,0-.577,2.883v12.355h-4.886V138.7a7.254,7.254,0,0,0-.577-2.883,7.449,7.449,0,0,0-6.889-4.53,7.236,7.236,0,0,0-2.883.577,7.46,7.46,0,0,0-3.954,3.954,7.237,7.237,0,0,0-.577,2.883v12.355H658.07V138.7a11.953,11.953,0,0,1,.961-4.8,12.339,12.339,0,0,1,6.562-6.536,12.073,12.073,0,0,1,4.777-.961A11.886,11.886,0,0,1,676,127.746a12.435,12.435,0,0,1,4.255,3.652,12.344,12.344,0,0,1,4.284-3.652A11.941,11.941,0,0,1,690.136,126.4Z" transform="translate(-658.07 -116.518)" fill="#0070c0"/>
      <path id="Tracciato_16" data-name="Tracciato 16" d="M855.312,142.7l3.46,3.46-1.7,1.7a12.307,12.307,0,0,1-17.462,0,11.679,11.679,0,0,1-2.691-4.091,12.77,12.77,0,0,1-.878-4.639,12.605,12.605,0,0,1,.878-4.611,11.737,11.737,0,0,1,2.691-4.063,12.01,12.01,0,0,1,4.091-2.717,12.324,12.324,0,0,1,9.279,0,12.046,12.046,0,0,1,4.091,2.717l1.7,1.7L845.1,145.827a7.314,7.314,0,0,0,8.51-1.429Zm-12.243-8.84a7.346,7.346,0,0,0-1.426,8.51q.658-.659,2-2.005l2.855-2.855q1.508-1.508,2.909-2.883t2.169-2.14a7.373,7.373,0,0,0-4.421-.714A7.076,7.076,0,0,0,843.069,133.857Z" transform="translate(-789.809 -116.837)" fill="#0070c0"/>
      <path id="Tracciato_17" data-name="Tracciato 17" d="M954.745,88.36v22.182a12.028,12.028,0,0,1-.961,4.777,12.688,12.688,0,0,1-2.637,3.954,12.29,12.29,0,0,1-13.479,2.663,12.445,12.445,0,0,1-6.616-6.616,12.418,12.418,0,0,1,0-9.58,12.176,12.176,0,0,1,2.663-3.9,12.684,12.684,0,0,1,3.954-2.637,12.073,12.073,0,0,1,4.777-.961h7.411V88.36Zm-12.3,29.65a7.254,7.254,0,0,0,2.883-.577,7.449,7.449,0,0,0,4.53-6.889v-7.411h-7.411a7.423,7.423,0,0,0-6.889,4.53,7.233,7.233,0,0,0-.577,2.883,7.418,7.418,0,0,0,7.463,7.463Z" transform="translate(-859.428 -88.36)" fill="#0070c0"/>
    </g>
  </g>
</svg>
