<svg xmlns="http://www.w3.org/2000/svg" width="169.832" height="161.176" viewBox="0 0 169.832 161.176">
  <g id="Doctors-bro" transform="translate(-25.576 -49.73)">
    <g id="freepik--background-simple--inject-2" transform="translate(25.576 49.73)">
      <path id="Tracciato_421" data-name="Tracciato 421" d="M78.759,59.642S49.9,74.349,35.5,97.011a62.526,62.526,0,0,0,4.236,73.436c17.492,21.629,50.927,18.807,78.921,32.52s58.88,10.887,72.118-18.155-6.723-39.91-10.152-73.512S146.9,28.5,78.759,59.642Z" transform="translate(-25.576 -49.73)" fill="#cbddff"/>
      <path id="Tracciato_422" data-name="Tracciato 422" d="M78.759,59.642S49.9,74.349,35.5,97.011a62.526,62.526,0,0,0,4.236,73.436c17.492,21.629,50.927,18.807,78.921,32.52s58.88,10.887,72.118-18.155-6.723-39.91-10.152-73.512S146.9,28.5,78.759,59.642Z" transform="translate(-25.576 -49.73)" fill="#fff" opacity="0.7"/>
    </g>
    <g id="freepik--Icons--inject-2" transform="translate(27.773 50.001)">
      <path id="Tracciato_423" data-name="Tracciato 423" d="M448.665,268.535h-1.581v-.27a2.788,2.788,0,0,0-2.785-2.785h-1.07a2.788,2.788,0,0,0-2.788,2.785v.27h-1.577a1.6,1.6,0,0,0-1.6,1.6v7.306a1.6,1.6,0,0,0,1.6,1.6h9.8a1.608,1.608,0,0,0,1.6-1.6v-7.306A1.6,1.6,0,0,0,448.665,268.535Zm-7.462-.27a2.027,2.027,0,0,1,2.027-2.023h1.07a2.023,2.023,0,0,1,2.023,2.023v.27H441.2Z" transform="translate(-282.634 -183.566)" fill="#263238"/>
      <path id="Tracciato_424" data-name="Tracciato 424" d="M452.5,282.065h-2.019V280.05h-1.806v2.015H446.66v1.809h2.019v2.015h1.806v-2.015H452.5Z" transform="translate(-288.453 -192.586)" fill="#fff"/>
      <path id="Tracciato_425" data-name="Tracciato 425" d="M455.118,140.95h0a2.388,2.388,0,0,1-2.388-2.392v-6.445a2.388,2.388,0,0,1,2.388-2.392h0a2.388,2.388,0,0,1,2.388,2.392v6.434a2.388,2.388,0,0,1-2.388,2.4Z" transform="translate(-292.211 -99.521)" fill="#fff" stroke="#263238" stroke-linecap="round" stroke-linejoin="round" stroke-width="1"/>
      <path id="Tracciato_426" data-name="Tracciato 426" d="M455.118,150.081h0a2.388,2.388,0,0,1-2.388-2.392V144.47h4.777v3.219a2.388,2.388,0,0,1-2.388,2.392Z" transform="translate(-292.211 -108.652)" fill="#263238" stroke="#263238" stroke-linecap="round" stroke-linejoin="round" stroke-width="1"/>
      <path id="Tracciato_427" data-name="Tracciato 427" d="M426.61,121.424h0a2.385,2.385,0,0,1,.381-3.36l5.017-4.03a2.4,2.4,0,0,1,3.364.381h0a2.392,2.392,0,0,1-.381,3.36L429.97,121.8a2.388,2.388,0,0,1-3.36-.377Z" transform="translate(-275.717 -89.488)" fill="#fff" stroke="#263238" stroke-linecap="round" stroke-linejoin="round" stroke-width="1"/>
      <path id="Tracciato_428" data-name="Tracciato 428" d="M426.61,125.545h0a2.385,2.385,0,0,1,.381-3.36l2.51-2.015,2.99,3.729-2.51,2.011a2.388,2.388,0,0,1-3.371-.366Z" transform="translate(-275.717 -93.609)" fill="#263238" stroke="#263238" stroke-linecap="round" stroke-linejoin="round" stroke-width="1"/>
      <path id="Tracciato_429" data-name="Tracciato 429" d="M333.938,64.841a1.428,1.428,0,0,0-.83.267l-5.55-4.308a3.1,3.1,0,0,0-.175-3.238l3.39-4.335a1.44,1.44,0,1,0-.922-1.341,1.406,1.406,0,0,0,.263.827l-3.3,4.225a3.112,3.112,0,0,0-5.112,2.209h-3.855a1.44,1.44,0,1,0-.149.834h4.076a3.116,3.116,0,0,0,5.3,1.493l5.52,4.293a1.436,1.436,0,1,0,1.341-.926Z" transform="translate(-206.933 -50.443)" fill="#263238"/>
      <path id="Tracciato_430" data-name="Tracciato 430" d="M65.951,132.966h0a1.745,1.745,0,0,1-1.741-1.741V116.75h3.482v14.475a1.741,1.741,0,0,1-1.741,1.741Z" transform="translate(-51.69 -91.492)" fill="#fff" stroke="#263238" stroke-linecap="round" stroke-linejoin="round" stroke-width="1"/>
      <path id="Tracciato_431" data-name="Tracciato 431" d="M65.951,142.023h0a1.745,1.745,0,0,1-1.741-1.741v-8.9h3.482v8.9a1.741,1.741,0,0,1-1.741,1.741Z" transform="translate(-51.69 -100.549)" fill="#263238" stroke="#263238" stroke-linecap="round" stroke-linejoin="round" stroke-width="1"/>
      <rect id="Rettangolo_457" data-name="Rettangolo 457" width="4.476" height="1.268" transform="translate(12.025 24.413)" fill="#fff" stroke="#263238" stroke-linecap="round" stroke-linejoin="round" stroke-width="1"/>
      <path id="Tracciato_432" data-name="Tracciato 432" d="M52.1,132.966h0a1.745,1.745,0,0,1-1.741-1.741V116.75h3.482v14.475a1.741,1.741,0,0,1-1.741,1.741Z" transform="translate(-43.116 -91.492)" fill="#fff" stroke="#263238" stroke-linecap="round" stroke-linejoin="round" stroke-width="1"/>
      <path id="Tracciato_433" data-name="Tracciato 433" d="M52.1,142.023h0a1.745,1.745,0,0,1-1.741-1.741v-8.9h3.482v8.9a1.741,1.741,0,0,1-1.741,1.741Z" transform="translate(-43.116 -100.549)" fill="#263238" stroke="#263238" stroke-linecap="round" stroke-linejoin="round" stroke-width="1"/>
      <rect id="Rettangolo_458" data-name="Rettangolo 458" width="4.476" height="1.268" transform="translate(6.749 24.413)" fill="#fff" stroke="#263238" stroke-linecap="round" stroke-linejoin="round" stroke-width="1"/>
      <path id="Tracciato_434" data-name="Tracciato 434" d="M177.407,65.37l1.387-3.329a.293.293,0,0,1,.278-.175.286.286,0,0,1,.259.2l1.68,5.539,1.28-4.08a.286.286,0,0,1,.267-.2.3.3,0,0,1,.274.19l.712,2.049H187.4a4.651,4.651,0,0,0,1.288-3.047,4.316,4.316,0,0,0-8.525-.983,4.316,4.316,0,0,0-8.518.987,4.708,4.708,0,0,0,1.124,2.868Z" transform="translate(-118.197 -55.227)" fill="#263238"/>
      <path id="Tracciato_435" data-name="Tracciato 435" d="M185.917,73.973a.286.286,0,0,1-.27-.19l-.5-1.425-1.3,4.141a.29.29,0,0,1-.274.2h0a.282.282,0,0,1-.27-.206L181.59,70.83,180.447,73.6a.286.286,0,0,1-.263.175H175.8c.941,1.051,2.114,1.981,2.99,2.846,1.326,1.31,2.625,2.667,3.977,3.931,1.733-1.71,3.478-3.428,5.2-5.139.476-.476.994-.949,1.474-1.444Z" transform="translate(-120.772 -63.064)" fill="#263238"/>
      <rect id="Rettangolo_459" data-name="Rettangolo 459" width="1.977" height="6.167" transform="matrix(-0.945, -0.328, 0.328, -0.945, 2.753, 96.699)" fill="#fff" stroke="#263238" stroke-width="1"/>
      <rect id="Rettangolo_460" data-name="Rettangolo 460" width="3.051" height="1.162" transform="matrix(-0.945, -0.328, 0.328, -0.945, 2.883, 97.976)" fill="#fff" stroke="#263238" stroke-width="1"/>
      <rect id="Rettangolo_461" data-name="Rettangolo 461" width="4.887" height="11.173" transform="matrix(-0.945, -0.328, 0.328, -0.945, 5.464, 93.326)" fill="#fff" stroke="#263238" stroke-width="1"/>
      <rect id="Rettangolo_462" data-name="Rettangolo 462" width="3.607" height="6.167" transform="matrix(-0.945, -0.328, 0.328, -0.945, 6.5, 88.391)" fill="#263238" stroke="#263238" stroke-width="1"/>
      <rect id="Rettangolo_463" data-name="Rettangolo 463" width="1.977" height="6.167" transform="matrix(-0.945, -0.328, 0.328, -0.945, 4.357, 92.08)" fill="#263238" stroke="#263238" stroke-width="1"/>
      <rect id="Rettangolo_464" data-name="Rettangolo 464" width="5.584" height="1.398" transform="matrix(-0.945, -0.328, 0.328, -0.945, 5.797, 93.444)" fill="#fff" stroke="#263238" stroke-width="1"/>
      <rect id="Rettangolo_465" data-name="Rettangolo 465" width="2.91" height="1.863" transform="matrix(-0.945, -0.328, 0.328, -0.945, 8.384, 81.902)" fill="#fff" stroke="#263238" stroke-width="1"/>
      <rect id="Rettangolo_466" data-name="Rettangolo 466" width="5.584" height="1.398" transform="matrix(-0.945, -0.328, 0.328, -0.945, 9.343, 83.217)" fill="#fff" stroke="#263238" stroke-width="1"/>
      <line id="Linea_100" data-name="Linea 100" y1="6.377" x2="2.209" transform="translate(7.648 73.05)" fill="none" stroke="#263238" stroke-width="1"/>
    </g>
    <g id="freepik--character-3--inject-2" transform="translate(137.27 69.869)">
      <ellipse id="Ellisse_20" data-name="Ellisse 20" cx="19.934" cy="4.495" rx="19.934" ry="4.495" transform="translate(1.059 129.822)" fill="#263238" stroke="#263238" stroke-linecap="round" stroke-linejoin="round" stroke-width="1"/>
      <path id="Tracciato_436" data-name="Tracciato 436" d="M324.413,188.48s-2.7,1.649-2.667,2.373-1.006,13.923-1.124,15.572-1.688,5.055-1.809,6.6a6.965,6.965,0,0,0,.72,3.809c.453.712,2.118,2.99,2.118,2.99l4.476-6.914a39.514,39.514,0,0,0,.069-4.537C326.127,205.081,324.413,188.48,324.413,188.48Z" transform="translate(-318.79 -155.765)" fill="#fff" stroke="#263238" stroke-linecap="round" stroke-linejoin="round" stroke-width="1"/>
      <path id="Tracciato_437" data-name="Tracciato 437" d="M354.055,102.607s-4.762-.3-7.474,3-2.129,8.354-2.148,9.9-4.625,6.095-4.114,7.946,1.867,2.061,1.432,3.607-3.268,2.476-2.857,4.438a22.908,22.908,0,0,0,1.9,4.743l27.427.187s.979-2.887-.065-5.055-2.526-2.884-2.286-3.916,1.566-3.508,1.055-5.363-2.286-2.369-2.472-5.672-.674-8.761-3.295-11.428S354.055,102.607,354.055,102.607Z" transform="translate(-331.211 -102.598)" fill="#263238" stroke="#263238" stroke-linecap="round" stroke-linejoin="round" stroke-width="1"/>
      <path id="Tracciato_438" data-name="Tracciato 438" d="M346.149,436.365a24.384,24.384,0,0,1-3.047,4.541c-1.752,1.962-3.451,2.994-3.394,4.026s3.882,1.234,5.9.51a21.4,21.4,0,0,0,3.9-2.286c.408-.118,1.547,0,1.573-1.448s-.194-5.569-.194-5.569Z" transform="translate(-331.739 -309.084)" fill="#fff" stroke="#263238" stroke-linecap="round" stroke-linejoin="round" stroke-width="1"/>
      <path id="Tracciato_439" data-name="Tracciato 439" d="M345.6,448.045a21.257,21.257,0,0,0,3.9-2.286c.408-.118,1.547,0,1.573-1.448,0-.762-.042-2.286-.1-3.531a3.6,3.6,0,0,1-3.086,1.9,3.785,3.785,0,0,0-1.143-1.958c-.712-.808-1.432-.171-1.851.381l-.339.51-.027.05h0a18.286,18.286,0,0,1-1.44,1.855c-1.752,1.962-3.451,2.994-3.394,4.026S343.576,448.769,345.6,448.045Z" transform="translate(-331.733 -311.687)" fill="#fff" stroke="#263238" stroke-linecap="round" stroke-linejoin="round" stroke-width="1"/>
      <path id="Tracciato_440" data-name="Tracciato 440" d="M385.913,436.382a28.3,28.3,0,0,0,3.543,4.537c1.962,1.958,3.771,2.987,3.809,4.019s-3.748,1.238-5.851.518a25.476,25.476,0,0,1-4.141-2.267c-.415-.1-1.55,0-1.729-1.44s-.4-5.569-.4-5.569Z" transform="translate(-357.389 -309.109)" fill="#fff" stroke="#263238" stroke-linecap="round" stroke-linejoin="round" stroke-width="1"/>
      <path id="Tracciato_441" data-name="Tracciato 441" d="M387.652,448.012a25.658,25.658,0,0,1-4.141-2.267c-.415-.1-1.55,0-1.729-1.44-.1-.762-.2-2.286-.282-3.535a4.038,4.038,0,0,0,3.287,1.882,3.4,3.4,0,0,1,.926-1.962c.628-.8,1.417-.171,1.9.381.126.168.255.335.381.51l.034.05h0a22.77,22.77,0,0,0,1.638,1.855c1.962,1.958,3.771,2.987,3.809,4.019S389.755,448.732,387.652,448.012Z" transform="translate(-357.612 -311.665)" fill="#fff" stroke="#263238" stroke-linecap="round" stroke-linejoin="round" stroke-width="1"/>
      <path id="Tracciato_442" data-name="Tracciato 442" d="M334.87,292.457s.636,21.45,1.482,25.678,4.621,28.463,4.621,28.463a9.07,9.07,0,0,0,3.649.716h4.125l.381-18.048.141-26.2,2.068,44.344s5.683.2,6.3.1,1.124-.206,1.124-.206l3.653-28.055,2.091-18.666.114-7.424s-17.462-.606-22.536-1.017-7.161-.514-7.161-.514Z" transform="translate(-328.745 -219.622)" fill="#cbddff" stroke="#263238" stroke-linecap="round" stroke-linejoin="round" stroke-width="1"/>
      <path id="Tracciato_443" data-name="Tracciato 443" d="M396.535,393.22c-.046.358-.091.689-.145.994" transform="translate(-366.83 -282.514)" fill="none" stroke="#263238" stroke-linecap="round" stroke-linejoin="round" stroke-width="1"/>
      <path id="Tracciato_444" data-name="Tracciato 444" d="M397.567,325.43s.354,15.283-.267,23.58" transform="translate(-367.393 -240.547)" fill="none" stroke="#263238" stroke-linecap="round" stroke-linejoin="round" stroke-width="1"/>
      <path id="Tracciato_445" data-name="Tracciato 445" d="M348.85,322.21s.438,10.11.872,12.376" transform="translate(-337.399 -238.553)" fill="none" stroke="#263238" stroke-linecap="round" stroke-linejoin="round" stroke-width="1"/>
      <path id="Tracciato_446" data-name="Tracciato 446" d="M391.58,305.3v7.718a16.7,16.7,0,0,0,3.021.522c1.566.1,4.487,0,4.487,0l.209-2.922Z" transform="translate(-363.852 -228.085)" fill="#263238" stroke="#263238" stroke-linecap="round" stroke-linejoin="round" stroke-width="1"/>
      <path id="Tracciato_447" data-name="Tracciato 447" d="M335.38,318.869a36.847,36.847,0,0,0,5.634,1.356c1.668.1,3.23.312,3.23.312l-.206-2.084-8.868-.834Z" transform="translate(-328.931 -235.712)" fill="#263238" stroke="#263238" stroke-linecap="round" stroke-linejoin="round" stroke-width="1"/>
      <path id="Tracciato_448" data-name="Tracciato 448" d="M348.234,167.07l-3.112,3.508-8.632,6.3,1.84,38.165a87.739,87.739,0,0,0,12.784,2.366,62.2,62.2,0,0,0,13.5-.838l-1.116-40s-3.36-4.952-5.082-6.289-2.51-2.575-4.792-2.781S348.234,167.07,348.234,167.07Z" transform="translate(-329.748 -142.511)" fill="#cbddff" stroke="#263238" stroke-linecap="round" stroke-linejoin="round" stroke-width="1"/>
      <path id="Tracciato_449" data-name="Tracciato 449" d="M338.042,169.022l-9.253,6.3,1.451,23.2-.491,2.331-3.889,4.48,1.657,7.87-.739,11.1a39.908,39.908,0,0,0,6.167,1.543,54.251,54.251,0,0,0,5.584.309L338.85,211s1.23-25.168,1.375-26.284,1.428-17.523,1.428-17.523Z" transform="translate(-323.167 -142.585)" fill="#fff" stroke="#263238" stroke-linecap="round" stroke-linejoin="round" stroke-width="1"/>
      <path id="Tracciato_450" data-name="Tracciato 450" d="M350.95,174.49l-4.48,11.234,4.834,2.007-4.564.83,4.042,15.835" transform="translate(-335.926 -147.104)" fill="none" stroke="#263238" stroke-linecap="round" stroke-linejoin="round" stroke-width="1"/>
      <path id="Tracciato_451" data-name="Tracciato 451" d="M365.28,159.22s1.608,10.723,2.872,13.2,1.623,3.3,1.623,3.3,2.75-8.358,3.3-9.6a36.535,36.535,0,0,0,1.143-5.672S368.739,162.206,365.28,159.22Z" transform="translate(-347.571 -137.651)" fill="#fff" stroke="#263238" stroke-linecap="round" stroke-linejoin="round" stroke-width="1"/>
      <path id="Tracciato_452" data-name="Tracciato 452" d="M365.28,159.22s.145.975.381,2.4c.8.613,2.933,2.129,4.506,2.209A7.581,7.581,0,0,0,373.9,162.5c.183-1.124.309-2.046.309-2.046S368.739,162.206,365.28,159.22Z" transform="translate(-347.571 -137.651)" fill="#263238" stroke="#263238" stroke-linecap="round" stroke-linejoin="round" stroke-width="1"/>
      <path id="Tracciato_453" data-name="Tracciato 453" d="M356.29,138.632s-1.1-1.562-1.836,0,1.143,3.874,1.668,4.19c1.493.888,1.1-.762,1.1-.762Z" transform="translate(-340.764 -124.476)" fill="#fff" stroke="#263238" stroke-linecap="round" stroke-linejoin="round" stroke-width="1"/>
      <path id="Tracciato_454" data-name="Tracciato 454" d="M394.4,140.318s.926-1.615,1.832-.091-.728,3.92-1.215,4.259c-1.394.964-1.173-.689-1.173-.689Z" transform="translate(-365.243 -125.488)" fill="#fff" stroke="#263238" stroke-linecap="round" stroke-linejoin="round" stroke-width="1"/>
      <path id="Tracciato_455" data-name="Tracciato 455" d="M358.87,128.043a27.782,27.782,0,0,0,5.981-2.114A10.978,10.978,0,0,0,368,123.06a20.607,20.607,0,0,0,3.238,4.571,7.808,7.808,0,0,0,1.832,1.394s-.728,5.695-1.55,7.676-3.508,3.908-6.015,3.352c-1.425-.312-3.893-1.341-4.609-3.074A86.853,86.853,0,0,1,358.87,128.043Z" transform="translate(-343.603 -115.266)" fill="#fff" stroke="#263238" stroke-linecap="round" stroke-linejoin="round" stroke-width="1"/>
      <path id="Tracciato_456" data-name="Tracciato 456" d="M369.439,142.758c-1.234.03-5.367.038-7.5-1.249a14.159,14.159,0,0,1-2.388-1.748c.076.381.168.857.267,1.352l.465.339,1.166,4.4-.545.118a13.179,13.179,0,0,0,.415,1.329c.716,1.733,3.185,2.762,4.609,3.074,2.5.552,5.181-1.364,6.011-3.341a1.878,1.878,0,0,1-.164-1.246c.24-1.246.537-3.428.537-3.428l.849-.762c.046-.278.084-.545.122-.789C372.254,141.524,370.327,142.735,369.439,142.758Z" transform="translate(-344.024 -125.604)" fill="#cbddff" stroke="#263238" stroke-linecap="round" stroke-linejoin="round" stroke-width="1"/>
      <path id="Tracciato_457" data-name="Tracciato 457" d="M368.6,140.4a4.09,4.09,0,0,0-3.074-1.467" transform="translate(-347.725 -125.087)" fill="none" stroke="#263238" stroke-linecap="round" stroke-linejoin="round" stroke-width="1"/>
      <path id="Tracciato_458" data-name="Tracciato 458" d="M382.59,141.737a3.767,3.767,0,0,1,3.348-1.12" transform="translate(-358.287 -126.103)" fill="none" stroke="#263238" stroke-linecap="round" stroke-linejoin="round" stroke-width="1"/>
      <path id="Tracciato_459" data-name="Tracciato 459" d="M363.52,136.018a7.207,7.207,0,0,1,3.592-.4" transform="translate(-346.481 -122.978)" fill="none" stroke="#263238" stroke-linecap="round" stroke-linejoin="round" stroke-width="1"/>
      <path id="Tracciato_460" data-name="Tracciato 460" d="M383,136.371a2.746,2.746,0,0,1,3.12.434" transform="translate(-358.541 -123.32)" fill="none" stroke="#263238" stroke-linecap="round" stroke-linejoin="round" stroke-width="1"/>
      <path id="Tracciato_461" data-name="Tracciato 461" d="M368.931,140.611a.449.449,0,0,1-.381.51.472.472,0,0,1-.419-.491.446.446,0,0,1,.381-.51.476.476,0,0,1,.419.491Z" transform="translate(-349.333 -125.827)" fill="#263238"/>
      <path id="Tracciato_462" data-name="Tracciato 462" d="M387.039,141.918a.438.438,0,0,1-.381.51.469.469,0,0,1-.419-.488.438.438,0,0,1,.381-.51A.469.469,0,0,1,387.039,141.918Z" transform="translate(-360.542 -126.638)" fill="#263238"/>
      <path id="Tracciato_463" data-name="Tracciato 463" d="M415.28,182.74a7.309,7.309,0,0,1,3.047,2.667c.827,1.638,7.436,19.386,7.405,20.726s-2.217,2.887-4.266,3.1-5.036-3.5-5.482-4.122-.526-7.84-.526-7.84Z" transform="translate(-378.524 -152.212)" fill="#fff" stroke="#263238" stroke-linecap="round" stroke-linejoin="round" stroke-width="1"/>
      <path id="Tracciato_464" data-name="Tracciato 464" d="M387.8,170.3l1.082,35.48.381,22.38a28.435,28.435,0,0,0,6.335.819,13.492,13.492,0,0,0,5.211-.929s-.648-13.923-.762-16.193-.869-6.6-.869-6.6l-.9-30.215S389.91,171.123,387.8,170.3Z" transform="translate(-361.512 -144.51)" fill="#fff" stroke="#263238" stroke-linecap="round" stroke-linejoin="round" stroke-width="1"/>
      <path id="Tracciato_465" data-name="Tracciato 465" d="M393.223,175.44l3.836,12.514-3.5.949,3.4,1.649-4.244,13.481" transform="translate(-364.558 -147.692)" fill="#fff" stroke="#263238" stroke-linecap="round" stroke-linejoin="round" stroke-width="1"/>
      <path id="Tracciato_466" data-name="Tracciato 466" d="M393.328,205.49l-4.758,22.795a27.7,27.7,0,0,0,5.63,1.143c2.377.114,7.329.1,7.329.1l4.952-21.248S396.733,207.345,393.328,205.49Z" transform="translate(-361.989 -166.295)" fill="#263238" stroke="#263238" stroke-linecap="round" stroke-linejoin="round" stroke-width="1"/>
      <path id="Tracciato_467" data-name="Tracciato 467" d="M405.41,249.683l.156-7.123,3.775.8S406.846,248.853,405.41,249.683Z" transform="translate(-372.414 -189.244)" fill="#fff" stroke="#263238" stroke-linecap="round" stroke-linejoin="round" stroke-width="1"/>
      <path id="Tracciato_468" data-name="Tracciato 468" d="M400.079,230.779s-1.006-1.44-1.329-1.752a8.185,8.185,0,0,0-2.232-1.234c-.309,0-1.966-.1-2.286-.1s-.682.724-.354,1.032a3.607,3.607,0,0,0,1.467.411l.781,1.143-3.524-.309s-.587.621-.453,1.143a7.019,7.019,0,0,0,.381,1.032,16.287,16.287,0,0,0,.118,2.267c.137.621.762.827,1.619,1.341s3.725.206,3.725.206h1.326Z" transform="translate(-364.192 -180.039)" fill="#fff" stroke="#263238" stroke-linecap="round" stroke-linejoin="round" stroke-width="1"/>
      <path id="Tracciato_469" data-name="Tracciato 469" d="M416.891,235.68l-9.142-1.23a57.258,57.258,0,0,1-1.432,7.84c-.72,1.958-.907,2.373-.907,2.373s9.58-.213,11.839-.419,3.527-1.55,3.428-3.406a9.313,9.313,0,0,0-1.23-3.714" transform="translate(-372.414 -184.224)" fill="#fff" stroke="#263238" stroke-linecap="round" stroke-linejoin="round" stroke-width="1"/>
      <path id="Tracciato_470" data-name="Tracciato 470" d="M328.673,254.54s2.133,1.337,2.667,1.752.579,3.093.918,3.607-.061.827-.678.827-1.55-1.958-1.55-1.958l-.038-.724-4.358,1.448-1.143-1.958S325.785,254.54,328.673,254.54Z" transform="translate(-322.319 -196.661)" fill="#fff" stroke="#263238" stroke-linecap="round" stroke-linejoin="round" stroke-width="1"/>
    </g>
    <g id="freepik--character-2--inject-2" transform="translate(86.419 59.262)">
      <ellipse id="Ellisse_21" data-name="Ellisse 21" cx="19.934" cy="4.495" rx="19.934" ry="4.495" transform="translate(5.524 140.429)" fill="#263238" stroke="#263238" stroke-linecap="round" stroke-linejoin="round" stroke-width="1"/>
      <path id="Tracciato_471" data-name="Tracciato 471" d="M290.749,174.79s2.613,13.115,3.078,15.542,1.318,8.194,2.286,10.723a10.466,10.466,0,0,1,.168,6.678,15.081,15.081,0,0,1-1.665,2.225l-3.246-4.232s-1.931-20.738-2-23.675A26.988,26.988,0,0,1,290.749,174.79Z" transform="translate(-249.722 -136.683)" fill="#fff" stroke="#263238" stroke-linecap="round" stroke-linejoin="round" stroke-width="1"/>
      <path id="Tracciato_472" data-name="Tracciato 472" d="M297.171,254.64a13.881,13.881,0,0,1,2.419,1.828,1.916,1.916,0,0,1,.339,1.828,17.318,17.318,0,0,1-2.206,2.72c-.389.347-.716-1.036-.762-2.225S297.171,254.64,297.171,254.64Z" transform="translate(-254.423 -186.115)" fill="#fff" stroke="#263238" stroke-linecap="round" stroke-linejoin="round" stroke-width="1"/>
      <path id="Tracciato_473" data-name="Tracciato 473" d="M254.43,442.134s6.449,3.135,6.857,3.745-1.063,1.421-4.906,1.421a12.241,12.241,0,0,1-5.485-.91c-1.528-.4-4.571-.1-4.983-1.013s.3-4.045.3-4.045Z" transform="translate(-222.745 -301.69)" fill="#fff" stroke="#263238" stroke-linecap="round" stroke-linejoin="round" stroke-width="1"/>
      <path id="Tracciato_474" data-name="Tracciato 474" d="M232.822,444.848s5.333,3.238,4.864,4.35-4.324,1.112-6.354.808-6.346-3.047-6.575-4.045.343-2.529,3.47-2.83A5.106,5.106,0,0,1,232.822,444.848Z" transform="translate(-209.699 -302.785)" fill="#fff" stroke="#263238" stroke-linecap="round" stroke-linejoin="round" stroke-width="1"/>
      <path id="Tracciato_475" data-name="Tracciato 475" d="M261.564,302.87s-3.047,23.469-3.577,26.909-2.209,8.9-3.116,13.051a69.15,69.15,0,0,0-1.143,7.386,6.927,6.927,0,0,0,.05,2.122c.13,1.013.149,1.821.149,1.821a27.633,27.633,0,0,1-4.129.708c-1.718.1-4.045.1-4.045.1l-.762-6.575s.568-9.714.9-12.544.693-25.088.678-25.7-.149-5.969-.149-5.969l10.38-1.112s1.417-4.045,3.546-3.844S261.564,302.87,261.564,302.87Z" transform="translate(-222.252 -213.714)" fill="#fff" stroke="#263238" stroke-linecap="round" stroke-linejoin="round" stroke-width="1"/>
      <path id="Tracciato_476" data-name="Tracciato 476" d="M262.7,299.228c-2.129-.2-3.546,3.844-3.546,3.844l-10.392,1.112s.034,1.425.069,2.887c1.108.1,2.133.156,3.009.156a91.59,91.59,0,0,0,9.965-.56l.446-4.663.7,4.75.48-.156c.3-2.263.488-3.737.488-3.737S264.828,299.43,262.7,299.228Z" transform="translate(-224.586 -213.714)" fill="#263238" stroke="#263238" stroke-linecap="round" stroke-linejoin="round" stroke-width="1"/>
      <path id="Tracciato_477" data-name="Tracciato 477" d="M220.3,310.66s0,.145.023.408c.141,2.766.979,18.791,1.234,21.747.286,3.238-1.143,6.777-1.07,9.71s.762,18.818.762,18.818l.762,2.628a7.438,7.438,0,0,1,3.508-1.211c1.718,0,4.571.1,4.571.1s.149-2.126.133-2.83-.08-3.238-.08-3.238,2.907-13.253,3.082-14.365,2.43-20.334,2.415-20.951.476-9.207.476-9.207Z" transform="translate(-206.967 -220.796)" fill="#fff" stroke="#263238" stroke-linecap="round" stroke-linejoin="round" stroke-width="1"/>
      <path id="Tracciato_478" data-name="Tracciato 478" d="M236.01,314.29c.065-1.173.11-2.011.11-2.011L220.3,310.66s0,.145.023.408c0,.335.042.865.08,1.524a98.328,98.328,0,0,0,13.816,1.707C234.829,314.309,235.423,314.3,236.01,314.29Z" transform="translate(-206.967 -220.796)" fill="#263238" stroke="#263238" stroke-linecap="round" stroke-linejoin="round" stroke-width="1"/>
      <path id="Tracciato_479" data-name="Tracciato 479" d="M226.95,146.7a4.775,4.775,0,0,0-2.308,1.029,16.763,16.763,0,0,0-1.714,2.331c-.088.282-9.923,6.251-9.923,6.251l.709,28.463s.293,4.385-.229,5.878a30.1,30.1,0,0,0-1.268,9.055c.091,3.638.328,9.523.328,9.523s11.256,2.24,16.669,2.24a91.586,91.586,0,0,0,9.965-.568l.446-4.666L240.3,211l2.312-.762,1.9-14.094a20.888,20.888,0,0,0,1.31-3.642c-.015-.655.335-1.493-.049-2.053s-1.07-1.68-1.07-1.68-1.722-30.867-1.722-31.709-5.093-5.783-5.47-5.969-2.7-3.642-5.714-4.571A6.246,6.246,0,0,0,226.95,146.7Z" transform="translate(-201.961 -118.951)" fill="#fff" stroke="#263238" stroke-linecap="round" stroke-linejoin="round" stroke-width="1"/>
      <path id="Tracciato_480" data-name="Tracciato 480" d="M241.018,158.87l-1.128,10.251,4.632,2.152-1.158,3.478,11.584,20.357" transform="translate(-219.095 -126.827)" fill="none" stroke="#263238" stroke-linecap="round" stroke-linejoin="round" stroke-width="1"/>
      <path id="Tracciato_481" data-name="Tracciato 481" d="M276.82,161.89l3.474,8.11-1.489,1.985,2.484,3.474-.994,22.345" transform="translate(-241.957 -128.697)" fill="none" stroke="#263238" stroke-linecap="round" stroke-linejoin="round" stroke-width="1"/>
      <path id="Tracciato_482" data-name="Tracciato 482" d="M249.77,148.4a21.538,21.538,0,0,0,1.078,5.878c1,2.8,7.641,22.117,7.641,22.117l4.293,15.115s-.568-15.4-.583-16.049-3.253-22.025-3.253-22.025-.552-3.451-1.425-4.758S250.8,144.94,249.77,148.4Z" transform="translate(-225.211 -119.244)" fill="#cbddff" stroke="#263238" stroke-linecap="round" stroke-linejoin="round" stroke-width="1"/>
      <path id="Tracciato_483" data-name="Tracciato 483" d="M244.983,147.36s-2.7.278-2.225,4.384,1.1,6.906,1.1,6.906" transform="translate(-220.836 -119.702)" fill="none" stroke="#263238" stroke-linecap="round" stroke-linejoin="round" stroke-width="2"/>
      <path id="Tracciato_484" data-name="Tracciato 484" d="M244.88,191.21a37.523,37.523,0,0,0,1.924,6.064,6.652,6.652,0,0,0,4.823,2.613" transform="translate(-222.184 -146.848)" fill="none" stroke="#263238" stroke-linecap="round" stroke-linejoin="round" stroke-width="1"/>
      <path id="Tracciato_485" data-name="Tracciato 485" d="M254.063,188.27s1.257,5.5,1.467,6.533-.484,2.983-1.649,4.952" transform="translate(-227.756 -145.028)" fill="none" stroke="#263238" stroke-linecap="round" stroke-linejoin="round" stroke-width="1"/>
      <path id="Tracciato_486" data-name="Tracciato 486" d="M252.564,218.178h0a.518.518,0,0,1-.206-.7l.133-.244a.5.5,0,0,1,.693-.187h0a.522.522,0,0,1,.209.7l-.133.24a.507.507,0,0,1-.7.19Z" transform="translate(-226.775 -162.8)" fill="#263238"/>
      <path id="Tracciato_487" data-name="Tracciato 487" d="M262.107,213.405h0a.5.5,0,0,1-.518.5h-.278a.522.522,0,0,1-.51-.526h0a.5.5,0,0,1,.514-.5h.278a.53.53,0,0,1,.514.526Z" transform="translate(-232.04 -160.262)" fill="#263238"/>
      <path id="Tracciato_488" data-name="Tracciato 488" d="M243.821,182.43l-.64-4.057a1.668,1.668,0,0,1,1.261-1.9h0a1.764,1.764,0,0,1,2.1,1.265l1.093,4.038" transform="translate(-221.117 -137.694)" fill="none" stroke="#263238" stroke-linecap="round" stroke-linejoin="round" stroke-width="2"/>
      <ellipse id="Ellisse_22" data-name="Ellisse 22" cx="1.668" cy="1.924" rx="1.668" ry="1.924" transform="matrix(0.995, -0.1, 0.1, 0.995, 35.718, 43.815)" fill="#fff" stroke="#263238" stroke-linecap="round" stroke-linejoin="round" stroke-width="1"/>
      <path id="Tracciato_489" data-name="Tracciato 489" d="M272.13,151.85s3.668,5.162,4.838,15.683" transform="translate(-239.054 -122.481)" fill="none" stroke="#263238" stroke-linecap="round" stroke-linejoin="round" stroke-width="2"/>
      <ellipse id="Ellisse_23" data-name="Ellisse 23" cx="0.91" cy="1.063" rx="0.91" ry="1.063" transform="matrix(0.996, -0.093, 0.093, 0.996, 36.908, 44.238)" fill="#fff" stroke="#263238" stroke-linecap="round" stroke-linejoin="round" stroke-width="1"/>
      <path id="Tracciato_490" data-name="Tracciato 490" d="M296.158,254.816a18.971,18.971,0,0,0-.552,2.126c0,.3-.072,1.215-.785,1.009s-.5-3.844-.408-4.247,1.825.9,1.825.9" transform="translate(-252.786 -185.488)" fill="#fff" stroke="#263238" stroke-linecap="round" stroke-linejoin="round" stroke-width="1"/>
      <path id="Tracciato_491" data-name="Tracciato 491" d="M236.318,248.29a4.529,4.529,0,0,0,2.065.56,28.917,28.917,0,0,1,3.916-.187c.75.194,2.666,2.609,2.666,2.609s.571.56.3.842-.823.762-1.2.465-2.286-1.867-2.286-1.867l-4.8,1.962L235,251.646Z" transform="translate(-216.068 -182.184)" fill="#fff" stroke="#263238" stroke-linecap="round" stroke-linejoin="round" stroke-width="1"/>
      <path id="Tracciato_492" data-name="Tracciato 492" d="M198.194,171.12s-3.166.381-3.7,1.211-9.211,19.877-9.192,20.719,17.344,14.475,17.344,14.475l3.741-7.12-9.359-8.678,4.061-9.424" transform="translate(-185.3 -134.411)" fill="#fff" stroke="#263238" stroke-linecap="round" stroke-linejoin="round" stroke-width="1"/>
      <path id="Tracciato_493" data-name="Tracciato 493" d="M234.48,266.774l9.15.187-.046-5.691" transform="translate(-215.746 -190.22)" fill="none" stroke="#263238" stroke-linecap="round" stroke-linejoin="round" stroke-width="1"/>
      <line id="Linea_101" data-name="Linea 101" x1="2.419" y2="0.903" transform="translate(18.498 70.49)" fill="none" stroke="#263238" stroke-linecap="round" stroke-linejoin="round" stroke-width="1"/>
      <path id="Tracciato_494" data-name="Tracciato 494" d="M247.419,135.761s1.04,8.121,1.726,9.333,5.562,6.064,5.562,6.064,1.524-5.6,1.7-6.9.3-6.533.3-6.533L247.4,135.11Z" transform="translate(-223.744 -112.118)" fill="#fff" stroke="#263238" stroke-linecap="round" stroke-linejoin="round" stroke-width="1"/>
      <path id="Tracciato_495" data-name="Tracciato 495" d="M247.419,135.761s.122.952.309,2.251a9.344,9.344,0,0,0,2.468,1.653,16.584,16.584,0,0,0,6.422.59c.053-1.368.088-2.533.088-2.533L247.4,135.11Z" transform="translate(-223.744 -112.118)" fill="#263238" stroke="#263238" stroke-linecap="round" stroke-linejoin="round" stroke-width="1"/>
      <path id="Tracciato_496" data-name="Tracciato 496" d="M237.091,99.35s-1.246-1.307-1.863.183.762,3.733,1.5,3.828a3.245,3.245,0,0,0,1.3-.1,12.242,12.242,0,0,0,1,2.8,9.782,9.782,0,0,0,3.535,2.8c1.7.762,7.386,1.032,8.106,0s.678-6.533.667-7-.091-7.116-.091-7.116a7.553,7.553,0,0,0-.183-3.9c-.693-1.588-7.653-3.809-9.4-2.891s-3.764,2.518-3.9,4.571-.053,5.413-.053,5.413Z" transform="translate(-216.113 -82.796)" fill="#fff" stroke="#263238" stroke-linecap="round" stroke-linejoin="round" stroke-width="1"/>
      <path id="Tracciato_497" data-name="Tracciato 497" d="M264.3,110.61s1.162,5.333.9,5.973-1.1.651-2.145.091-.5-1.307-.5-1.307" transform="translate(-233.035 -96.951)" fill="none" stroke="#263238" stroke-linecap="round" stroke-linejoin="round" stroke-width="1"/>
      <path id="Tracciato_498" data-name="Tracciato 498" d="M256.75,126.78s.5,1.4,1.436,1.493,3.276.278,3.276.278" transform="translate(-229.533 -106.961)" fill="none" stroke="#263238" stroke-linecap="round" stroke-linejoin="round" stroke-width="1"/>
      <path id="Tracciato_499" data-name="Tracciato 499" d="M248,109.887l.149,2.24a6.341,6.341,0,0,0,2.811.469,4.826,4.826,0,0,0,2.6-.469l-.053-2.24A5.631,5.631,0,0,0,248,109.887Z" transform="translate(-224.116 -96.041)" fill="none" stroke="#263238" stroke-linecap="round" stroke-linejoin="round" stroke-width="1"/>
      <path id="Tracciato_500" data-name="Tracciato 500" d="M267.39,109.89l.709,2.335s.29.381,2.251.381a4.835,4.835,0,0,0,2.606-.469l-.057-2.24A5.624,5.624,0,0,0,267.39,109.89Z" transform="translate(-236.119 -96.044)" fill="none" stroke="#263238" stroke-linecap="round" stroke-linejoin="round" stroke-width="1"/>
      <line id="Linea_102" data-name="Linea 102" x2="1.867" transform="translate(29.404 13.846)" fill="none" stroke="#263238" stroke-linecap="round" stroke-linejoin="round" stroke-width="1"/>
      <line id="Linea_103" data-name="Linea 103" x1="3.68" y2="2.148" transform="translate(20.216 13.846)" fill="none" stroke="#263238" stroke-linecap="round" stroke-linejoin="round" stroke-width="1"/>
      <path id="Tracciato_501" data-name="Tracciato 501" d="M250.41,107.253s1-1.12,3.261-.187" transform="translate(-225.608 -94.527)" fill="none" stroke="#263238" stroke-linecap="round" stroke-linejoin="round" stroke-width="1"/>
      <path id="Tracciato_502" data-name="Tracciato 502" d="M268.29,107.343a2.286,2.286,0,0,1,2.419-.278" transform="translate(-236.677 -94.617)" fill="none" stroke="#263238" stroke-linecap="round" stroke-linejoin="round" stroke-width="1"/>
      <path id="Tracciato_503" data-name="Tracciato 503" d="M255.475,112.562c0,.411-.149.762-.354.762s-.381-.335-.381-.762.149-.762.358-.762S255.468,112.147,255.475,112.562Z" transform="translate(-228.288 -97.687)" fill="#263238"/>
      <path id="Tracciato_504" data-name="Tracciato 504" d="M271.155,112.312c0,.411-.149.762-.354.762s-.381-.335-.381-.762.149-.762.354-.762S271.144,111.9,271.155,112.312Z" transform="translate(-237.995 -97.533)" fill="#263238"/>
      <path id="Tracciato_505" data-name="Tracciato 505" d="M241.358,80.9s.9,1.985-.217,2.708a2.263,2.263,0,0,1-2.267,0,2.506,2.506,0,0,1,.072,2.834,15.734,15.734,0,0,1-1.9,2.548s.2,2.411-.217,2.693-1.562-.141-1.581-.849-.476-2.126-.5-2.834-.347-2.552-.347-2.552-2.865-1.276-1.345-2.834A16.878,16.878,0,0,1,237.8,79.78s.072-2.834,2.034-3.684,6.182-2.126,6.217-.709a4.35,4.35,0,0,1-.381,2.126,8.891,8.891,0,0,1,6.007,2.286c2.468,2.427,2.385,4.678,1.109,4.678a3.328,3.328,0,0,0-1.691.282s2.442,1.417,1.185,2.126a2.632,2.632,0,0,1-2.552-.141s.541-.99-1.051-2.286S241.358,80.9,241.358,80.9Z" transform="translate(-214.59 -74.752)" fill="#263238" stroke="#263238" stroke-linecap="round" stroke-linejoin="round" stroke-width="1"/>
    </g>
    <g id="freepik--character-1--inject-2" transform="translate(41.016 65.493)">
      <ellipse id="Ellisse_24" data-name="Ellisse 24" cx="19.934" cy="4.495" rx="19.934" ry="4.495" transform="translate(3.901 134.197)" fill="#263238" stroke="#263238" stroke-linecap="round" stroke-linejoin="round" stroke-width="1"/>
      <path id="Tracciato_506" data-name="Tracciato 506" d="M163.14,210.053v3.642l5.295,2.427a22.877,22.877,0,0,0,.11-6.731Z" transform="translate(-126.178 -164.334)" fill="#999" stroke="#263238" stroke-linecap="round" stroke-linejoin="round" stroke-width="1"/>
      <path id="Tracciato_507" data-name="Tracciato 507" d="M86.433,438.917A37.95,37.95,0,0,0,83,442.257c-1.524,1.718-1.821,3.428-.4,4.247s3.642.606,6.068-.91,2.327-2.126,3.745-2.628a3.164,3.164,0,0,0,2.327-3.139c0-1.615-5.162-1.821-6.274-1.9A2.852,2.852,0,0,0,86.433,438.917Z" transform="translate(-75.751 -305.809)" fill="#fff" stroke="#263238" stroke-linecap="round" stroke-linejoin="round" stroke-width="1"/>
      <path id="Tracciato_508" data-name="Tracciato 508" d="M94.721,442.93a18.762,18.762,0,0,0-3.394,1.935c-1.109.922-3.318,4.24-5.9,4.24a7.668,7.668,0,0,1-3.756-.979,1.676,1.676,0,0,0,.91,1.482c1.417.808,3.642.606,6.068-.91s2.327-2.126,3.745-2.628A3.161,3.161,0,0,0,94.721,442.93Z" transform="translate(-75.743 -308.912)" fill="none" stroke="#263238" stroke-linecap="round" stroke-linejoin="round" stroke-width="1"/>
      <path id="Tracciato_509" data-name="Tracciato 509" d="M148.038,438.917a37.95,37.95,0,0,1,3.428,3.341c1.524,1.718,1.821,3.428.4,4.247s-3.642.606-6.068-.91-2.327-2.126-3.745-2.628a3.164,3.164,0,0,1-2.327-3.139c0-1.615,5.162-1.821,6.274-1.9A2.852,2.852,0,0,1,148.038,438.917Z" transform="translate(-111.686 -305.809)" fill="#fff" stroke="#263238" stroke-linecap="round" stroke-linejoin="round" stroke-width="1"/>
      <path id="Tracciato_510" data-name="Tracciato 510" d="M139.76,442.93a18.761,18.761,0,0,1,3.394,1.935c1.109.922,3.318,4.24,5.9,4.24a7.668,7.668,0,0,0,3.756-.979,1.676,1.676,0,0,1-.91,1.482c-1.417.808-3.642.606-6.068-.91s-2.327-2.126-3.745-2.628A3.161,3.161,0,0,1,139.76,442.93Z" transform="translate(-111.705 -308.912)" fill="none" stroke="#263238" stroke-linecap="round" stroke-linejoin="round" stroke-width="1"/>
      <path id="Tracciato_511" data-name="Tracciato 511" d="M86.45,287.409s.606,22.761.91,26.1,1.2,10.925,1.2,11.344.5,17.2.5,17.2l-.91,1.524.3,2.126,4.045.808c2.023.4,4.655,1.013,5.059.609a4.84,4.84,0,0,0,.709-2.327,12.1,12.1,0,0,0,.2-4.754c-.4-1.615.507-18.818.609-19.222s2.43-17.02,2.43-17.02,1.524,13.66,2.628,17.8.709,10.319,1.112,12.746,1.215,10.624,1.318,11.23.3,1.524.3,1.524a51.974,51.974,0,0,0,5.969-1.116,19.562,19.562,0,0,1,2.834-.808,55.733,55.733,0,0,0-.1-8.095,32.759,32.759,0,0,1-.507-4.952c0-.708.507-23.164.507-23.164l-.507-21.751s-13.656,1.417-18.917.4-9.6-1.619-9.6-1.619Z" transform="translate(-78.702 -211.761)" fill="#cbddff" stroke="#263238" stroke-linecap="round" stroke-linejoin="round" stroke-width="1"/>
      <path id="Tracciato_512" data-name="Tracciato 512" d="M96.16,287.611C90.9,286.6,86.553,286,86.553,286l-.1,1.413s.034,1.307.091,3.333a47.82,47.82,0,0,0,12.045,1.859c5.005,0,12.978-1.524,16.567-2.251l-.076-3.143S101.421,288.625,96.16,287.611Z" transform="translate(-78.702 -211.761)" fill="#263238" stroke="#263238" stroke-linecap="round" stroke-linejoin="round" stroke-width="1"/>
      <path id="Tracciato_513" data-name="Tracciato 513" d="M158.07,424.79c.065.7.107,1.1.107,1.1" transform="translate(-123.04 -297.682)" fill="none" stroke="#263238" stroke-linecap="round" stroke-linejoin="round" stroke-width="1"/>
      <path id="Tracciato_514" data-name="Tracciato 514" d="M154,303.72s.381,19.549.381,26.928c0,5.1.617,12.853,1,17.142" transform="translate(-120.52 -222.731)" fill="none" stroke="#263238" stroke-linecap="round" stroke-linejoin="round" stroke-width="1"/>
      <line id="Linea_104" data-name="Linea 104" x2="0.922" y2="21.21" transform="translate(13.005 79.884)" fill="none" stroke="#263238" stroke-linecap="round" stroke-linejoin="round" stroke-width="1"/>
      <line id="Linea_105" data-name="Linea 105" y2="3.505" transform="translate(13.74 102.751)" fill="none" stroke="#263238" stroke-linecap="round" stroke-linejoin="round" stroke-width="1"/>
      <path id="Tracciato_515" data-name="Tracciato 515" d="M92.533,149.265a3.135,3.135,0,0,0-2.541,1.322,18.007,18.007,0,0,1-2.1,2.316l-9.047,4.857.884,34.535.331,11.809a49.8,49.8,0,0,0,13.569,2.316c6.621,0,18.426-2.667,18.426-2.667s-.99-46.009-.659-46.009-6.51-5.943-9.6-7.5S92.533,149.265,92.533,149.265Z" transform="translate(-73.997 -127.046)" fill="#cbddff" stroke="#263238" stroke-linecap="round" stroke-linejoin="round" stroke-width="1"/>
      <path id="Tracciato_516" data-name="Tracciato 516" d="M108,160.4s3.5,6.457,4.983,9.409,4.236,7.2,4.236,7.2l4.613-12.357" transform="translate(-92.043 -134.006)" fill="none" stroke="#263238" stroke-linecap="round" stroke-linejoin="round" stroke-width="1"/>
      <path id="Tracciato_517" data-name="Tracciato 517" d="M97.59,258.55l-.179-5.154L87,252.79s.1,7.588.3,8" transform="translate(-79.042 -191.202)" fill="none" stroke="#263238" stroke-linecap="round" stroke-linejoin="round" stroke-width="1"/>
      <line id="Linea_106" data-name="Linea 106" x1="0.05" y1="1.448" transform="translate(18.624 69.549)" fill="none" stroke="#263238" stroke-linecap="round" stroke-linejoin="round" stroke-width="1"/>
      <path id="Tracciato_518" data-name="Tracciato 518" d="M147.035,258.757l-.3-8.495a11.647,11.647,0,0,0,6.678-1.722" transform="translate(-116.019 -188.571)" fill="none" stroke="#263238" stroke-linecap="round" stroke-linejoin="round" stroke-width="1"/>
      <path id="Tracciato_519" data-name="Tracciato 519" d="M106.378,196.005a1.685,1.685,0,1,0,1-2.339A1.807,1.807,0,0,0,106.378,196.005Z" transform="translate(-90.974 -154.557)" fill="none" stroke="#263238" stroke-linecap="round" stroke-linejoin="round" stroke-width="1"/>
      <path id="Tracciato_520" data-name="Tracciato 520" d="M106.4,153.52s-1.169,4.495,1.489,16.7" transform="translate(-90.896 -129.747)" fill="none" stroke="#263238" stroke-linecap="round" stroke-linejoin="round" stroke-width="2"/>
      <path id="Tracciato_521" data-name="Tracciato 521" d="M110.039,196.286a.922.922,0,1,1-.545-1.288.994.994,0,0,1,.545,1.288Z" transform="translate(-92.223 -155.398)" fill="none" stroke="#263238" stroke-linecap="round" stroke-linejoin="round" stroke-width="1"/>
      <path id="Tracciato_522" data-name="Tracciato 522" d="M162.063,170s1.653,1.215,1.764,1.657,5.737,13.9,5.737,13.9l-8.163,1.2.11-7.946" transform="translate(-125.101 -139.949)" fill="#cbddff" stroke="#263238" stroke-linecap="round" stroke-linejoin="round" stroke-width="1"/>
      <path id="Tracciato_523" data-name="Tracciato 523" d="M72.068,170.58s-1.878.221-2.32,1.653-3.638,16-3.638,16L77.8,187.12l-1.1-10.925" transform="translate(-66.11 -140.308)" fill="#cbddff" stroke="#263238" stroke-linecap="round" stroke-linejoin="round" stroke-width="1"/>
      <path id="Tracciato_524" data-name="Tracciato 524" d="M141.05,151.72a7.276,7.276,0,0,1,3.185,5.767c.286,4.114,0,5.158,0,5.158" transform="translate(-112.503 -128.633)" fill="none" stroke="#263238" stroke-linecap="round" stroke-linejoin="round" stroke-width="2"/>
      <path id="Tracciato_525" data-name="Tracciato 525" d="M144.6,194.23s-.259,4.864-.789,6.27a6.465,6.465,0,0,1-4.285,3.337" transform="translate(-111.562 -154.949)" fill="none" stroke="#263238" stroke-linecap="round" stroke-linejoin="round" stroke-width="1"/>
      <path id="Tracciato_526" data-name="Tracciato 526" d="M142.585,192.85s-.232,5.611-.255,6.655,1.029,2.861,2.537,4.6" transform="translate(-113.295 -154.095)" fill="none" stroke="#263238" stroke-linecap="round" stroke-linejoin="round" stroke-width="1"/>
      <rect id="Rettangolo_467" data-name="Rettangolo 467" width="1.025" height="1.307" rx="0.512" transform="translate(32.424 50.282) rotate(140.96)" fill="#263238"/>
      <rect id="Rettangolo_468" data-name="Rettangolo 468" width="1.025" height="1.307" rx="0.512" transform="translate(27.473 49.597) rotate(-100.73)" fill="#263238"/>
      <path id="Tracciato_527" data-name="Tracciato 527" d="M146.692,185.838l-.11-4.087a1.714,1.714,0,0,0-1.592-1.668h0a1.714,1.714,0,0,0-1.836,1.573l-.343,4.145" transform="translate(-113.593 -146.188)" fill="none" stroke="#263238" stroke-linecap="round" stroke-linejoin="round" stroke-width="2"/>
      <path id="Tracciato_528" data-name="Tracciato 528" d="M121.718,203.261l-2.632-.552-9.268-1.543-13-2.476-3.082-1.36s-2.914-3.809-3.166-4.19-3.546.949-3.428,1.455.507,5.569.762,5.889,3.1.316,3.1.316,13.576,6.552,14.14,6.792c7.836,3.3,11.615,3.272,12.952,3.489a3.022,3.022,0,0,0,2.979-1.208C121.848,208.991,121.718,203.261,121.718,203.261Z" transform="translate(-79.13 -154.233)" fill="#999" stroke="#263238" stroke-linecap="round" stroke-linejoin="round" stroke-width="1"/>
      <path id="Tracciato_529" data-name="Tracciato 529" d="M86.573,193.11a8.493,8.493,0,0,0-3.924,1.646c-.872.59-1.329,1.013-1.329,1.268a3.9,3.9,0,0,0,.255.884,24.38,24.38,0,0,1,4.746-1.707" transform="translate(-75.526 -154.256)" fill="#999" stroke="#263238" stroke-linecap="round" stroke-linejoin="round" stroke-width="1"/>
      <path id="Tracciato_530" data-name="Tracciato 530" d="M87.311,200.457s-4.3,1.074-5,1.2-.823-.571-.823-.823.19-.636.949-1.013,4.571-1.394,4.571-1.394" transform="translate(-75.631 -157.549)" fill="#999" stroke="#263238" stroke-linecap="round" stroke-linejoin="round" stroke-width="1"/>
      <path id="Tracciato_531" data-name="Tracciato 531" d="M88.669,206.12s-5,.507-5.383.19a1.223,1.223,0,0,1-.316-.949l4.495-.952" transform="translate(-76.544 -161.251)" fill="#999" stroke="#263238" stroke-linecap="round" stroke-linejoin="round" stroke-width="1"/>
      <path id="Tracciato_532" data-name="Tracciato 532" d="M88.009,209.56l-3.859.19s.187.571.381.632a16.911,16.911,0,0,0,2.785.446,13.1,13.1,0,0,1,1.836.19" transform="translate(-77.278 -164.44)" fill="#999" stroke="#263238" stroke-linecap="round" stroke-linejoin="round" stroke-width="1"/>
      <path id="Tracciato_533" data-name="Tracciato 533" d="M72.48,211.313s1.764,7.619,2.206,8.167,4.084,0,7.725-1.1,19.088-7.721,19.088-7.721l2.206.438s-.884-2.758-2.427-2.868-19.53,2.2-19.53,2.2Z" transform="translate(-70.053 -163.61)" fill="#999" stroke="#263238" stroke-linecap="round" stroke-linejoin="round" stroke-width="1"/>
      <path id="Tracciato_534" data-name="Tracciato 534" d="M113,136.69v.442a47.94,47.94,0,0,0,.545,7.173c.442,1.322,6.4,12.468,6.857,11.584s3.2-12.91,3.2-12.91v-4.743a6.638,6.638,0,0,1-4.084,1.211C116.87,139.448,113,136.69,113,136.69Z" transform="translate(-95.138 -119.328)" fill="#999" stroke="#263238" stroke-linecap="round" stroke-linejoin="round" stroke-width="1"/>
      <path id="Tracciato_535" data-name="Tracciato 535" d="M121.838,143.227a15.513,15.513,0,0,0,1.768-1.257v-3.733a6.638,6.638,0,0,1-4.084,1.211c-2.647,0-6.522-2.758-6.522-2.758v.442c0,.51.038,1.413.084,2.419a3.861,3.861,0,0,0,.35.476,20.948,20.948,0,0,0,5.295,3.31A4.354,4.354,0,0,0,121.838,143.227Z" transform="translate(-95.138 -119.328)" fill="#263238" stroke="#263238" stroke-linecap="round" stroke-linejoin="round" stroke-width="1"/>
      <path id="Tracciato_536" data-name="Tracciato 536" d="M147.79,119.463s1.764-.994,1.764.884a8.531,8.531,0,0,1-1.653,4.084Z" transform="translate(-116.676 -108.5)" fill="#999" stroke="#263238" stroke-linecap="round" stroke-linejoin="round" stroke-width="1"/>
      <path id="Tracciato_537" data-name="Tracciato 537" d="M102.42,102.185s-2.43-.663-2.43,1.547,2.209,3.638,2.209,3.638h1.524a14.565,14.565,0,0,0,1.657,3.089,21.151,21.151,0,0,0,5.295,3.31,4.283,4.283,0,0,0,3.089-.11,18.375,18.375,0,0,0,3.428-2.758,23.882,23.882,0,0,0,1.215-4.3s.221-6.731-.221-9.047a9,9,0,0,0-7.283-6.4c-3.973-.442-7.725,2.758-8.274,5.295A21.532,21.532,0,0,0,102.42,102.185Z" transform="translate(-87.084 -91.112)" fill="#999" stroke="#263238" stroke-linecap="round" stroke-linejoin="round" stroke-width="1"/>
      <path id="Tracciato_538" data-name="Tracciato 538" d="M124.833,124.82s-.762,1.543.552,1.985,2.979.331,3.31-.331a1.57,1.57,0,0,0-.221-1.432" transform="translate(-102.328 -111.98)" fill="none" stroke="#263238" stroke-linecap="round" stroke-linejoin="round" stroke-width="1"/>
      <path id="Tracciato_539" data-name="Tracciato 539" d="M121.72,132.06a5.687,5.687,0,0,0,6.51.11" transform="translate(-100.536 -116.462)" fill="none" stroke="#263238" stroke-linecap="round" stroke-linejoin="round" stroke-width="1"/>
      <path id="Tracciato_540" data-name="Tracciato 540" d="M125.77,137.2s2.32,1.326,3.863-.221" transform="translate(-103.044 -119.507)" fill="none" stroke="#263238" stroke-linecap="round" stroke-linejoin="round" stroke-width="1"/>
      <ellipse id="Ellisse_25" data-name="Ellisse 25" cx="0.552" cy="0.884" rx="0.552" ry="0.884" transform="translate(20.852 9.747)" fill="#263238"/>
      <path id="Tracciato_541" data-name="Tracciato 541" d="M136.145,117.3c0,.488-.248.884-.552.884s-.552-.381-.552-.884.248-.88.552-.88S136.145,116.812,136.145,117.3Z" transform="translate(-108.783 -106.779)" fill="#263238"/>
      <path id="Tracciato_542" data-name="Tracciato 542" d="M118.24,114.822s.552-.884,2.667-.552" transform="translate(-98.382 -105.402)" fill="none" stroke="#263238" stroke-linecap="round" stroke-linejoin="round" stroke-width="1"/>
      <path id="Tracciato_543" data-name="Tracciato 543" d="M134.17,113.563s.994-1.547,2.541,0" transform="translate(-108.244 -104.585)" fill="none" stroke="#263238" stroke-linecap="round" stroke-linejoin="round" stroke-width="1"/>
      <path id="Tracciato_544" data-name="Tracciato 544" d="M146.355,104.979a6.225,6.225,0,0,0-.735-1.859,6.885,6.885,0,0,0-.133,1.859c.16.808.728,1.935.728,2.5s-.084,2.823.32,2.5a.5.5,0,0,0,.1-.145A33.839,33.839,0,0,0,146.355,104.979Z" transform="translate(-115.241 -98.546)" fill="#263238" stroke="#263238" stroke-linecap="round" stroke-linejoin="round" stroke-width="1"/>
      <path id="Tracciato_545" data-name="Tracciato 545" d="M116.444,93a15.773,15.773,0,0,0,2.11-.255,8.053,8.053,0,0,0-3.847-1.547c-3.973-.442-7.725,2.758-8.274,5.295a21.773,21.773,0,0,0-.221,5.737s.876.61,1.2-.034,0-1.7.324-2.823a16.153,16.153,0,0,0,.884-2.583c.08-.888-.484-2.175-.16-2.9s2.339-2.1,3.63-1.611A11.256,11.256,0,0,0,116.444,93Z" transform="translate(-90.876 -91.143)" fill="#263238" stroke="#263238" stroke-linecap="round" stroke-linejoin="round" stroke-width="1"/>
    </g>
  </g>
</svg>
