<svg id="Livello_1" data-name="Livello 1" xmlns="http://www.w3.org/2000/svg" viewBox="0 0 1050 298"><defs><style>.cls-1{fill:#39b54a;}.cls-2{fill:#006837;}.cls-3{fill:#8cc63f;}.cls-4{fill:#fff;}</style></defs><title>openmed_white</title><path class="cls-1" d="M151.79,143.5v60.86A22.82,22.82,0,0,1,129,227.18H68.11a22.82,22.82,0,0,1-22.82-22.82V143.5a22.82,22.82,0,0,1,22.82-22.82H129a23.4,23.4,0,0,1,2.53.14V100.39H47.82A22.83,22.83,0,0,0,25,123.22V224.65a22.82,22.82,0,0,0,22.82,22.82H149.25a22.83,22.83,0,0,0,22.83-22.82V143.5Z"/><rect class="cls-2" x="151.79" y="97.86" width="22.82" height="22.82"/><rect class="cls-2" x="197.43" y="75.03" width="22.82" height="22.82"/><rect class="cls-3" x="174.61" y="97.86" width="22.82" height="22.82"/><rect class="cls-3" x="126.43" y="75.03" width="12.68" height="12.68"/><rect class="cls-1" x="230.4" y="85.18" width="12.68" height="12.68"/><rect class="cls-1" x="197.43" y="29.39" width="22.82" height="22.82"/><rect class="cls-1" x="151.79" y="75.03" width="22.82" height="22.82"/><rect class="cls-1" x="174.61" y="52.21" width="22.82" height="22.82"/><path class="cls-4" d="M257.17,173a46.24,46.24,0,0,1,3.7-18.5,47.44,47.44,0,0,1,25.26-25.15,47.8,47.8,0,0,1,36.88,0,49.35,49.35,0,0,1,15.12,10.14,47.18,47.18,0,0,1,10.25,15,47.8,47.8,0,0,1,0,36.88A48.17,48.17,0,0,1,323,216.86a47.2,47.2,0,0,1-52-10.25,48.72,48.72,0,0,1-10.15-15.22A46.39,46.39,0,0,1,257.17,173Zm18.6,0a28.63,28.63,0,0,0,2.22,11.2,28.61,28.61,0,0,0,26.53,17.54A28.59,28.59,0,0,0,333.27,173a27.85,27.85,0,0,0-2.22-11.1,28.92,28.92,0,0,0-6.13-9.09,29,29,0,0,0-40.8,0,28.75,28.75,0,0,0-6.13,9.09A27.85,27.85,0,0,0,275.77,173Z"/><path class="cls-4" d="M406,125.66a46.27,46.27,0,0,1,18.5,3.7,49.43,49.43,0,0,1,15.11,10.14,47,47,0,0,1,10.25,15,47.8,47.8,0,0,1,0,36.88,48.2,48.2,0,0,1-25.36,25.47,46.1,46.1,0,0,1-18.5,3.7H377.44v38.05H358.63V173a46.07,46.07,0,0,1,3.7-18.5,47.37,47.37,0,0,1,25.25-25.15A46.48,46.48,0,0,1,406,125.66Zm11.21,73.87A28.59,28.59,0,0,0,434.72,173a27.85,27.85,0,0,0-2.22-11.1,28.75,28.75,0,0,0-6.13-9.09,28.8,28.8,0,0,0-20.4-8.35,27.84,27.84,0,0,0-11.09,2.22,28.72,28.72,0,0,0-15.22,15.22,27.85,27.85,0,0,0-2.22,11.1v28.74H406A28.67,28.67,0,0,0,417.18,199.53Z"/><path class="cls-4" d="M534.06,186.74l13.31,13.32-6.55,6.55a47.37,47.37,0,0,1-67.21,0,44.91,44.91,0,0,1-10.36-15.74A49.37,49.37,0,0,1,459.87,173a48.57,48.57,0,0,1,3.38-17.76,45.17,45.17,0,0,1,10.36-15.64,46.28,46.28,0,0,1,15.74-10.46,47.47,47.47,0,0,1,35.73,0,46.28,46.28,0,0,1,15.74,10.46l6.55,6.55-52.63,52.63a28.18,28.18,0,0,0,32.77-5.49Zm-47.14-34a27.72,27.72,0,0,0-8.45,20.3,27.44,27.44,0,0,0,3,12.47l7.71-7.72,11-11q5.82-5.81,11.21-11.1t8.35-8.24a28.46,28.46,0,0,0-17-2.75A27.28,27.28,0,0,0,486.92,152.71Z"/><path class="cls-4" d="M557.41,154.3a47.44,47.44,0,0,1,25.26-25.15,47.83,47.83,0,0,1,36.89,0,49.25,49.25,0,0,1,15.11,10.14,47.18,47.18,0,0,1,10.25,15,46.22,46.22,0,0,1,3.7,18.49v47.56H629.81V172.79a27.84,27.84,0,0,0-2.22-11.09,28.92,28.92,0,0,0-6.13-9.09,28.84,28.84,0,0,0-20.4-8.35,27.89,27.89,0,0,0-11.1,2.22,28.74,28.74,0,0,0-15.21,15.22,27.84,27.84,0,0,0-2.22,11.09v47.56H553.71V172.79A46.22,46.22,0,0,1,557.41,154.3Z"/><path class="cls-4" d="M781.51,126.4A46.19,46.19,0,0,1,800,130.1a49.2,49.2,0,0,1,15.12,10.15,47.18,47.18,0,0,1,10.25,15,46.19,46.19,0,0,1,3.7,18.49v47.56H810.25V173.75a27.92,27.92,0,0,0-2.22-11.1,28.69,28.69,0,0,0-26.52-17.43,27.85,27.85,0,0,0-11.1,2.22,28.65,28.65,0,0,0-15.22,15.21,27.92,27.92,0,0,0-2.22,11.1v47.56H734.16V173.75a27.92,27.92,0,0,0-2.22-11.1,28.69,28.69,0,0,0-26.52-17.43,27.85,27.85,0,0,0-11.1,2.22,28.65,28.65,0,0,0-15.22,15.21,27.92,27.92,0,0,0-2.22,11.1v47.56H658.07V173.75a46,46,0,0,1,3.7-18.49A47.41,47.41,0,0,1,687,130.1a46.41,46.41,0,0,1,18.39-3.7,45.76,45.76,0,0,1,21.66,5.18,47.88,47.88,0,0,1,16.38,14.06A47.52,47.52,0,0,1,760,131.58,46,46,0,0,1,781.51,126.4Z"/><path class="cls-4" d="M910.23,187.91l13.32,13.32L917,207.78a47.37,47.37,0,0,1-67.21,0A45,45,0,0,1,839.42,192,49.33,49.33,0,0,1,836,174.17a48.56,48.56,0,0,1,3.38-17.75,45.17,45.17,0,0,1,10.36-15.64,46.4,46.4,0,0,1,15.75-10.47,47.57,47.57,0,0,1,35.72,0A46.46,46.46,0,0,1,917,140.78l6.56,6.55L870.92,200a28.15,28.15,0,0,0,32.76-5.5Zm-47.13-34a28.27,28.27,0,0,0-5.5,32.76l7.71-7.71,11-11q5.81-5.82,11.2-11.1t8.35-8.24a28.31,28.31,0,0,0-17-2.75A27.17,27.17,0,0,0,863.1,153.88Z"/><path class="cls-4" d="M1025,88.36v85.39a46.3,46.3,0,0,1-3.7,18.39,48.8,48.8,0,0,1-10.14,15.22,47.31,47.31,0,0,1-51.89,10.25,47.91,47.91,0,0,1-25.47-25.47,47.8,47.8,0,0,1,0-36.88,46.86,46.86,0,0,1,10.25-15,48.72,48.72,0,0,1,15.22-10.15,46.39,46.39,0,0,1,18.38-3.7h28.54v-38ZM977.65,202.5a27.85,27.85,0,0,0,11.1-2.22,28.75,28.75,0,0,0,9.09-6.13,28.84,28.84,0,0,0,8.35-20.4V145.22H977.65a28.55,28.55,0,0,0-26.52,17.43,27.92,27.92,0,0,0-2.22,11.1,28.59,28.59,0,0,0,28.74,28.75Z"/></svg>